<svg width="17" height="20" viewBox="0 0 17 20" fill="none" xmlns="http://www.w3.org/2000/svg">
<path d="M14.9919 7.46826C14.9919 7.46826 14.5264 14.2033 14.2564 17.0403C14.1278 18.3953 13.4102 19.1893 12.2348 19.2143C9.99813 19.2613 7.75885 19.2643 5.523 19.2093C4.39222 19.1823 3.68666 18.3783 3.56064 17.0473C3.28887 14.1853 2.82593 7.46826 2.82593 7.46826" stroke="#04212F" stroke-width="1.5" stroke-linecap="round" stroke-linejoin="round"/>
<path d="M16.1778 4.23975H1.63965" stroke="#04212F" stroke-width="1.5" stroke-linecap="round" stroke-linejoin="round"/>
<path d="M13.3763 4.23973C12.7034 4.23973 12.1238 3.68473 11.9918 2.91573L11.7835 1.69973C11.6549 1.13873 11.2194 0.750732 10.723 0.750732H7.09403C6.59765 0.750732 6.16214 1.13873 6.03354 1.69973L5.82522 2.91573C5.69319 3.68473 5.11366 4.23973 4.44067 4.23973" stroke="#04212F" stroke-width="1.5" stroke-linecap="round" stroke-linejoin="round"/>
</svg>
